<?xml version="1.0" encoding="UTF-8" standalone="no"?>
<svg
   width="64"
   height="64"
   version="1.1"
   id="svg16"
   sodipodi:docname="empty.svg"
   inkscape:version="1.2.2 (b0a8486541, 2022-12-01)"
   xmlns:inkscape="http://www.inkscape.org/namespaces/inkscape"
   xmlns:sodipodi="http://sodipodi.sourceforge.net/DTD/sodipodi-0.dtd"
   xmlns="http://www.w3.org/2000/svg"
   xmlns:svg="http://www.w3.org/2000/svg">
  <defs
     id="defs20" />
  <sodipodi:namedview
     id="namedview18"
     pagecolor="#ffffff"
     bordercolor="#000000"
     borderopacity="0.25"
     inkscape:showpageshadow="2"
     inkscape:pageopacity="0.0"
     inkscape:pagecheckerboard="0"
     inkscape:deskcolor="#d1d1d1"
     showgrid="false"
     inkscape:zoom="16.046875"
     inkscape:cx="32.062317"
     inkscape:cy="32.062317"
     inkscape:window-width="3440"
     inkscape:window-height="1367"
     inkscape:window-x="0"
     inkscape:window-y="36"
     inkscape:window-maximized="1"
     inkscape:current-layer="svg16" />
  <path
     style="opacity:0.2"
     d="M 12.8125,5 C 11.254375,5 10,6.2488 10,7.8 v 50.4 c 0,1.5512 1.254375,2.8 2.8125,2.8 h 39.375 C 53.745625,61 55,59.7512 55,58.2 V 22 L 40.9375,19 38,5 Z"
     id="path2" />
  <path
     style="fill:#26557c"
     d="M 12.8125,4 C 11.254375,4 10,5.2488 10,6.8 v 50.4 c 0,1.5512 1.254375,2.8 2.8125,2.8 h 39.375 C 53.745625,60 55,58.7512 55,57.2 V 21 L 40.9375,18 38,4 Z"
     id="path4" />
  <path
     style="opacity:0.2"
     d="M 55,22 38,5 V 19.166667 C 38,20.736333 39.263667,22 40.833333,22 Z"
     id="path6" />
  <path
     style="fill:#396b95"
     d="M 55,21 38,4 V 18.166667 C 38,19.736333 39.263667,21 40.833333,21 Z"
     id="path8" />
  <path
     style="opacity:0.1;fill:#ffffff"
     d="M 12.8125,4 C 11.254375,4 10,5.2495813 10,6.8007812 v 1 C 10,6.2495812 11.254375,5 12.8125,5 H 38 V 4 Z"
     id="path14" />
</svg>
